<?xml version="1.0" encoding="UTF-8"?>
<svg width="962px" height="117px" viewBox="0 0 962 117" version="1.1" xmlns="http://www.w3.org/2000/svg" xmlns:xlink="http://www.w3.org/1999/xlink">
    <title>Element / Logo / Ultimo white</title>
    <g id="Element-/-Logo-/-Ultimo-white" stroke="none" stroke-width="1" fill="none" fill-rule="evenodd">
        <g id="Group" fill="#FFFFFF">
            <path d="M152.093067,0 L152.093067,75.9942267 C152.093067,87.1117055 152.093067,90.1048729 103.035157,90.1048729 C54.9192469,90.1048729 54.9192469,86.7522775 54.9192469,76.78125 L54.9192469,0 L0,0 L0,76.78125 C0,97.9193326 8.7550638,107.016578 34.6816276,112.835593 C49.8890872,116.027066 66.789685,117 107.05559,117 C125.224503,117 138.738824,116.671557 149.581065,116.002278 C170.508254,114.694703 189.046578,109.024417 197.96172,101.216155 C203.847684,96.2895127 207,87.4463453 207,75.7029661 L207,0 L152.093067,0" id="Fill-1"></path>
            <polyline id="Fill-2" points="223 14 223 102 355 102 355 76.7151277 272.24483 76.7151277 272.24483 14 223 14"></polyline>
            <polyline id="Fill-3" points="319 14 319 39.2848723 370.115361 39.2848723 370.115361 102 419.642445 102 419.642445 39.2848723 472 39.2848723 472 14 319 14"></polyline>
            <polygon id="Fill-4" points="487 102 537 102 537 14 487 14"></polygon>
            <path d="M710.618185,14 C710.618185,14 669.50338,61.4021892 663.475269,68.3485827 C657.366784,61.4454112 615.386404,14 615.386404,14 L551,14 L551,102 L599.917344,102 L599.917344,52.5602021 C611.441855,65.2983441 644.599555,102 644.599555,102 L683.043444,102 C683.043444,102 715.626154,65.5268033 727.113569,52.6713444 L727.113569,102 L776,102 L776,14 L710.618185,14" id="Fill-5"></path>
            <path d="M845.680395,13.5570073 C828.087386,14.2996837 812.360862,18.0378215 803.638278,23.5831385 C791.878805,30.8985009 790,38.8513272 790,60.6426901 C790,70.6131206 790.326481,74.7164076 792.192966,79.3457571 C795.839696,88.8829597 803.453478,94.6510796 817.633837,98.5253748 C829.44259,101.954064 842.372466,103 872.889191,103 C886.983311,103 897.41222,102.826709 905.703603,102.442993 C924.947497,101.712694 941.117542,97.7641315 950.031087,91.6122954 C960.201275,84.2659882 962,76.2450832 962,57.3068354 C962,46.8846101 961.439438,41.5435291 959.880954,36.8894237 L959.825514,36.7099436 L959.745434,36.5428414 C955.365661,26.3000963 945.749875,19.8264338 929.468949,16.1873195 C918.82444,13.7798102 906.652246,13 879.394169,13 C864.573168,13 853.854738,13.1856691 845.680395,13.5570073 M841.701024,75.1496355 C840.01318,73.4786137 839.347898,71.770458 839.347898,61.1811305 C839.347898,45.052675 839.705179,43.814881 840.955662,42.0510246 L841.041902,41.9272452 L841.115823,41.7972769 C843.136308,38.5171228 847.614641,37.6197222 875.359358,37.6197222 C894.172051,37.6197222 905.531122,37.6197222 909.676814,40.0953101 C912.418022,41.7353872 912.639782,45.8201073 912.639782,58 C912.639782,71.1763169 912.251701,71.7023793 910.779457,73.6766607 L910.643937,73.8685188 C908.432491,77.1734287 905.451042,78.2379315 878.476327,78.2379315 C851.07041,78.2379315 844.189671,77.6623573 841.701024,75.1496355" id="Fill-6"></path>
        </g>
    </g>
</svg>